# xmcd CD database file
#
# Track frame offsets:
#	150
#	26850
#	45675
#	63825
#
# Disc length: 1092 seconds
#
# Revision: 0
# Processed by: cddbd v1.5.2PL0 Copyright (c) Steve Scherf et al.
# Submitted via: CDex 1.51
#
DISCID=2f044204
DTITLE=Jimmy's Bluesonic - Funky blues music on your stereo
DYEAR=1900
DGENRE=Blues
TTITLE0=You can stay but the noise must go
TTITLE1=You're gonna need me
TTITLE2=Little by little
TTITLE3=Get out of my life woman
EXTD=
EXTT0=
EXTT1=
EXTT2=
EXTT3=
PLAYORDER=
